<?xml version="1.0" encoding="UTF-8" standalone="no"?>
<!-- Created with Inkscape (http://www.inkscape.org/) -->

<svg
   xmlns:dc="http://purl.org/dc/elements/1.1/"
   xmlns:cc="http://creativecommons.org/ns#"
   xmlns:rdf="http://www.w3.org/1999/02/22-rdf-syntax-ns#"
   xmlns:svg="http://www.w3.org/2000/svg"
   xmlns="http://www.w3.org/2000/svg"
   xmlns:sodipodi="http://sodipodi.sourceforge.net/DTD/sodipodi-0.dtd"
   xmlns:inkscape="http://www.inkscape.org/namespaces/inkscape"
   width="157.19989mm"
   height="33.649002mm"
   viewBox="0 0 557.00748 119.22875"
   id="svg3895"
   version="1.1"
   inkscape:version="0.92.4 5da689c313, 2019-01-14"
   sodipodi:docname="vegovaVodoravna.svg">
  <defs
     id="defs3897">
    <clipPath
       id="clipPath3352"
       clipPathUnits="userSpaceOnUse">
      <path
         inkscape:connector-curvature="0"
         id="path3354"
         d="m 0,841.89 595.28,0 L 595.28,0 0,0 0,841.89 Z" />
    </clipPath>
    <clipPath
       id="clipPath3890"
       clipPathUnits="userSpaceOnUse">
      <path
         inkscape:connector-curvature="0"
         id="path3892"
         d="m 0,841.89 595.28,0 L 595.28,0 0,0 0,841.89 Z" />
    </clipPath>
  </defs>
  <sodipodi:namedview
     id="base"
     pagecolor="#ffffff"
     bordercolor="#666666"
     borderopacity="1.0"
     inkscape:pageopacity="0.0"
     inkscape:pageshadow="2"
     inkscape:zoom="3.959798"
     inkscape:cx="419.73999"
     inkscape:cy="102.24413"
     inkscape:document-units="px"
     inkscape:current-layer="layer1"
     showgrid="false"
     fit-margin-top="0"
     fit-margin-left="0"
     fit-margin-right="0"
     fit-margin-bottom="0"
     inkscape:window-width="3840"
     inkscape:window-height="1547"
     inkscape:window-x="0"
     inkscape:window-y="28"
     inkscape:window-maximized="1"
     inkscape:showpageshadow="false"
     borderlayer="false"
     showborder="false" />
  <metadata
     id="metadata3900">
    <rdf:RDF>
      <cc:Work
         rdf:about="">
        <dc:format>image/svg+xml</dc:format>
        <dc:type
           rdf:resource="http://purl.org/dc/dcmitype/StillImage" />
        <dc:title></dc:title>
      </cc:Work>
    </rdf:RDF>
  </metadata>
  <g
     inkscape:label="Layer 1"
     inkscape:groupmode="layer"
     id="layer1"
     transform="translate(-66.128595,-615.18282)">
    <g
       id="g675">
      <path
         inkscape:connector-curvature="0"
         id="path3620"
         style="fill:#d33742;fill-opacity:1;fill-rule:nonzero;stroke:none"
         d="m 360.18073,707.9526 h -1.24375 v -63.81375 h 1.24375 z" />
      <g
         transform="matrix(1.25,0,0,-1.25,379.84135,672.19348)"
         id="g3622">
        <path
           inkscape:connector-curvature="0"
           id="path3624"
           style="fill:#606163;fill-opacity:1;fill-rule:nonzero;stroke:none"
           d="M 0,0 V 6.219 H 4.436 V 5.321 H 1.001 V 3.605 H 4.114 V 2.71 H 1.001 V 0.897 H 4.492 V 0 Z" />
      </g>
      <g
         transform="matrix(1.25,0,0,-1.25,387.34623,672.19348)"
         id="g3626">
        <path
           inkscape:connector-curvature="0"
           id="path3628"
           style="fill:#606163;fill-opacity:1;fill-rule:nonzero;stroke:none"
           d="M 0,0 V 6.219 H 1.003 V 0.897 H 4.377 V 0 Z" />
      </g>
      <g
         transform="matrix(1.25,0,0,-1.25,394.12598,672.19348)"
         id="g3630">
        <path
           inkscape:connector-curvature="0"
           id="path3632"
           style="fill:#606163;fill-opacity:1;fill-rule:nonzero;stroke:none"
           d="M 0,0 V 6.219 H 4.436 V 5.321 H 1.001 V 3.605 H 4.114 V 2.71 H 1.001 V 0.897 H 4.489 V 0 Z" />
      </g>
      <g
         transform="matrix(1.25,0,0,-1.25,406.61861,672.19348)"
         id="g3634">
        <path
           inkscape:connector-curvature="0"
           id="path3636"
           style="fill:#606163;fill-opacity:1;fill-rule:nonzero;stroke:none"
           d="M 0,0 -2.517,2.606 -2.99,2.134 V 0 h -1 v 6.219 h 1 V 3.388 h 0.02 l 2.743,2.831 H 1.099 L -1.849,3.277 1.333,0 Z" />
      </g>
      <g
         transform="matrix(1.25,0,0,-1.25,413.07985,665.54185)"
         id="g3638">
        <path
           inkscape:connector-curvature="0"
           id="path3640"
           style="fill:#606163;fill-opacity:1;fill-rule:nonzero;stroke:none"
           d="M 0,0 V -5.321 H -1 V 0 H -3.311 V 0.897 H 2.312 V 0 Z" />
      </g>
      <g
         transform="matrix(1.25,0,0,-1.25,420.81048,665.64685)"
         id="g3642">
        <path
           inkscape:connector-curvature="0"
           id="path3644"
           style="fill:#606163;fill-opacity:1;fill-rule:nonzero;stroke:none"
           d="m 0,0 c -0.267,0.075 -0.548,0.084 -0.946,0.084 h -0.877 v -2.019 h 0.757 c 0.404,0 0.725,0.021 0.98,0.095 0.482,0.144 0.791,0.444 0.791,0.954 C 0.705,-0.415 0.404,-0.113 0,0 m 1.648,-5.283 c -0.469,0 -0.839,0.17 -1.14,0.413 -0.858,0.7 -1.188,2.04 -1.821,2.04 h -0.51 v -2.407 h -1.001 v 6.218 h 1.861 c 0.473,0 0.897,-0.028 1.255,-0.122 0.812,-0.217 1.46,-0.745 1.46,-1.726 0,-1.068 -0.763,-1.605 -1.78,-1.776 v -0.016 c 0.404,-0.227 0.659,-1.059 1.158,-1.464 0.188,-0.15 0.398,-0.245 0.662,-0.245 0.111,0 0.292,0.019 0.433,0.057 L 2.434,-5.159 C 2.253,-5.237 1.943,-5.283 1.648,-5.283" />
      </g>
      <g
         transform="matrix(1.25,0,0,-1.25,428.84148,665.50397)"
         id="g3646">
        <path
           inkscape:connector-curvature="0"
           id="path3648"
           style="fill:#606163;fill-opacity:1;fill-rule:nonzero;stroke:none"
           d="m 0,0 c -1.531,0 -2.408,-0.963 -2.408,-2.275 0,-1.31 0.877,-2.254 2.408,-2.254 1.528,0 2.405,0.944 2.405,2.254 C 2.405,-0.963 1.528,0 0,0 m 0,-5.445 c -2.004,0 -3.455,1.217 -3.455,3.17 0,1.897 1.426,3.188 3.455,3.188 2.027,0 3.452,-1.291 3.452,-3.188 0,-1.953 -1.454,-3.17 -3.452,-3.17" />
      </g>
      <g
         transform="matrix(1.25,0,0,-1.25,437.94061,665.54185)"
         id="g3650">
        <path
           inkscape:connector-curvature="0"
           id="path3652"
           style="fill:#606163;fill-opacity:1;fill-rule:nonzero;stroke:none"
           d="M 0,0 V -5.321 H -1.001 V 0 H -3.312 V 0.897 H 2.311 V 0 Z" />
      </g>
      <g
         transform="matrix(1.25,0,0,-1.25,442.1411,672.19348)"
         id="g3654">
        <path
           inkscape:connector-curvature="0"
           id="path3656"
           style="fill:#606163;fill-opacity:1;fill-rule:nonzero;stroke:none"
           d="M 0,0 V 6.219 H 4.435 V 5.321 H 1 V 3.605 H 4.114 V 2.71 H 1 V 0.897 H 4.492 V 0 Z" />
      </g>
      <g
         transform="matrix(1.25,0,0,-1.25,455.56886,672.19348)"
         id="g3658">
        <path
           inkscape:connector-curvature="0"
           id="path3660"
           style="fill:#606163;fill-opacity:1;fill-rule:nonzero;stroke:none"
           d="M 0,0 V 2.71 H -3.735 V 0 h -1.001 v 6.219 h 1.001 V 3.605 H 0 V 6.219 H 1.001 V 0 Z" />
      </g>
      <g
         transform="matrix(1.25,0,0,-1.25,466.03761,672.19348)"
         id="g3662">
        <path
           inkscape:connector-curvature="0"
           id="path3664"
           style="fill:#606163;fill-opacity:1;fill-rule:nonzero;stroke:none"
           d="M 0,0 -4.53,4.569 H -4.55 V 0 h -1.001 v 6.219 h 0.803 l 4.464,-4.5 h 0.017 v 4.5 h 1 L 0.733,0 Z" />
      </g>
      <path
         inkscape:connector-curvature="0"
         id="path3666"
         style="fill:#606163;fill-opacity:1;fill-rule:nonzero;stroke:none"
         d="m 469.24448,664.4201 h 1.25125 v 7.77375 h -1.25125 z" />
      <g
         transform="matrix(1.25,0,0,-1.25,476.22561,663.81822)"
         id="g3668">
        <path
           inkscape:connector-curvature="0"
           id="path3670"
           style="fill:#606163;fill-opacity:1;fill-rule:nonzero;stroke:none"
           d="m 0,0 h -1.112 l -0.68,1.66 h 0.766 l 0.47,-1.189 0.473,1.189 h 0.766 z m -0.742,-6.794 c -1.029,0 -1.869,0.274 -2.475,0.67 l 0.453,0.804 c 0.531,-0.322 1.199,-0.558 2.031,-0.558 1.037,0 1.705,0.331 1.705,0.99 0,1.113 -2.32,0.585 -3.435,1.397 -0.347,0.255 -0.564,0.633 -0.564,1.226 0,1.228 1.02,1.829 2.425,1.829 0.952,0 1.861,-0.272 2.443,-0.61 L 1.456,-1.84 c -0.51,0.255 -1.247,0.491 -1.992,0.491 -1.084,0 -1.445,-0.423 -1.445,-0.858 0,-1.537 4.002,-0.152 4.002,-2.634 0,-1.366 -1.33,-1.953 -2.763,-1.953" />
      </g>
      <g
         transform="matrix(1.25,0,0,-1.25,485.59323,672.19348)"
         id="g3672">
        <path
           inkscape:connector-curvature="0"
           id="path3674"
           style="fill:#606163;fill-opacity:1;fill-rule:nonzero;stroke:none"
           d="M 0,0 -2.52,2.606 -2.99,2.134 V 0 h -1 v 6.219 h 1 V 3.388 h 0.017 l 2.744,2.831 H 1.096 L -1.849,3.277 1.331,0 Z" />
      </g>
      <g
         transform="matrix(1.25,0,0,-1.25,491.89086,665.50397)"
         id="g3676">
        <path
           inkscape:connector-curvature="0"
           id="path3678"
           style="fill:#606163;fill-opacity:1;fill-rule:nonzero;stroke:none"
           d="m 0,0 c -1.528,0 -2.406,-0.963 -2.406,-2.275 0,-1.31 0.878,-2.254 2.406,-2.254 1.53,0 2.405,0.944 2.405,2.254 C 2.405,-0.963 1.53,0 0,0 m 0,-5.445 c -1.999,0 -3.452,1.217 -3.452,3.17 0,1.897 1.425,3.188 3.452,3.188 2.029,0 3.454,-1.291 3.454,-3.188 0,-1.953 -1.453,-3.17 -3.454,-3.17" />
      </g>
      <path
         inkscape:connector-curvature="0"
         id="path3680"
         style="fill:#606163;fill-opacity:1;fill-rule:nonzero;stroke:none"
         d="m 498.16573,668.6301 h 3.38625 v 1.0975 h -3.38625 z" />
      <g
         transform="matrix(1.25,0,0,-1.25,507.27898,665.64685)"
         id="g3682">
        <path
           inkscape:connector-curvature="0"
           id="path3684"
           style="fill:#606163;fill-opacity:1;fill-rule:nonzero;stroke:none"
           d="M 0,0 C -0.264,0.075 -0.548,0.084 -0.943,0.084 H -1.82 v -2.019 h 0.754 c 0.404,0 0.727,0.021 0.98,0.095 0.482,0.144 0.791,0.444 0.791,0.954 C 0.705,-0.415 0.404,-0.113 0,0 m 1.651,-5.283 c -0.473,0 -0.839,0.17 -1.144,0.413 -0.854,0.7 -1.187,2.04 -1.82,2.04 H -1.82 v -2.407 h -1.001 v 6.218 h 1.857 c 0.474,0 0.898,-0.028 1.256,-0.122 0.812,-0.217 1.462,-0.745 1.462,-1.726 0,-1.068 -0.765,-1.605 -1.783,-1.776 v -0.016 c 0.407,-0.227 0.66,-1.059 1.161,-1.464 0.189,-0.15 0.396,-0.245 0.66,-0.245 0.114,0 0.292,0.019 0.436,0.057 L 2.434,-5.159 C 2.256,-5.237 1.943,-5.283 1.651,-5.283" />
      </g>
      <g
         transform="matrix(1.25,0,0,-1.25,515.43211,666.13998)"
         id="g3686">
        <path
           inkscape:connector-curvature="0"
           id="path3688"
           style="fill:#606163;fill-opacity:1;fill-rule:nonzero;stroke:none"
           d="m 0,0 h -0.021 l -1.038,-2.182 h 2.151 z m 2.434,-4.843 -0.886,1.767 h -3.03 l -0.84,-1.767 h -1.121 l 3.073,6.248 h 0.736 l 3.189,-6.248 z" />
      </g>
      <g
         transform="matrix(1.25,0,0,-1.25,525.42723,663.81822)"
         id="g3690">
        <path
           inkscape:connector-curvature="0"
           id="path3692"
           style="fill:#606163;fill-opacity:1;fill-rule:nonzero;stroke:none"
           d="m 0,0 h -1.112 l -0.68,1.66 h 0.763 l 0.472,-1.189 0.474,1.189 h 0.762 z m -0.52,-6.794 c -2.264,0 -3.545,1.236 -3.545,3.123 0,1.879 1.413,3.235 3.5,3.235 0.923,0 1.697,-0.186 2.377,-0.499 L 1.511,-1.784 c -0.594,0.263 -1.237,0.435 -1.982,0.435 -1.556,0 -2.549,-0.981 -2.549,-2.264 0,-1.368 0.898,-2.265 2.567,-2.265 0.662,0 1.33,0.151 1.964,0.415 L 1.84,-6.313 C 1,-6.67 0.197,-6.794 -0.52,-6.794" />
      </g>
      <g
         transform="matrix(1.25,0,0,-1.25,536.45748,670.45885)"
         id="g3694">
        <path
           inkscape:connector-curvature="0"
           id="path3696"
           style="fill:#606163;fill-opacity:1;fill-rule:nonzero;stroke:none"
           d="m 0,0 c -0.396,-0.951 -1.339,-1.481 -2.821,-1.481 -1.548,0 -2.509,0.586 -2.867,1.585 -0.124,0.34 -0.169,0.699 -0.169,1.086 v 3.641 h 0.998 V 1.312 c 0,-0.339 0.04,-0.641 0.143,-0.908 0.243,-0.612 0.811,-0.969 1.895,-0.969 1.05,0 1.614,0.331 1.869,0.907 0.124,0.272 0.17,0.601 0.17,0.97 v 3.519 h 1 V 1.19 C 0.218,0.746 0.144,0.342 0,0" />
      </g>
      <g
         transform="matrix(1.25,0,0,-1.25,545.89361,672.19348)"
         id="g3698">
        <path
           inkscape:connector-curvature="0"
           id="path3700"
           style="fill:#606163;fill-opacity:1;fill-rule:nonzero;stroke:none"
           d="m 0,0 -4.527,4.569 h -0.02 V 0 h -1.001 v 6.219 h 0.803 l 4.464,-4.5 h 0.017 v 4.5 h 1 L 0.736,0 Z" />
      </g>
      <g
         transform="matrix(1.25,0,0,-1.25,552.43773,666.13998)"
         id="g3702">
        <path
           inkscape:connector-curvature="0"
           id="path3704"
           style="fill:#606163;fill-opacity:1;fill-rule:nonzero;stroke:none"
           d="m 0,0 h -0.021 l -1.038,-2.182 h 2.154 z m 2.434,-4.843 -0.886,1.767 h -3.03 l -0.84,-1.767 h -1.121 l 3.076,6.248 h 0.734 l 3.191,-6.248 z" />
      </g>
      <g
         transform="matrix(1.25,0,0,-1.25,558.2031,672.19348)"
         id="g3706">
        <path
           inkscape:connector-curvature="0"
           id="path3708"
           style="fill:#606163;fill-opacity:1;fill-rule:nonzero;stroke:none"
           d="M 0,0 V 6.219 H 1.001 V 0.897 H 4.375 V 0 Z" />
      </g>
      <g
         transform="matrix(1.25,0,0,-1.25,571.91898,672.19348)"
         id="g3710">
        <path
           inkscape:connector-curvature="0"
           id="path3712"
           style="fill:#606163;fill-opacity:1;fill-rule:nonzero;stroke:none"
           d="M 0,0 -4.53,4.569 H -4.55 V 0 h -1.001 v 6.219 h 0.803 l 4.464,-4.5 h 0.017 v 4.5 h 1 L 0.733,0 Z" />
      </g>
      <path
         inkscape:connector-curvature="0"
         id="path3714"
         style="fill:#606163;fill-opacity:1;fill-rule:nonzero;stroke:none"
         d="m 575.12198,664.4201 h 1.25125 v 7.77375 h -1.25125 z" />
      <g
         transform="matrix(1.25,0,0,-1.25,582.10698,663.81822)"
         id="g3716">
        <path
           inkscape:connector-curvature="0"
           id="path3718"
           style="fill:#606163;fill-opacity:1;fill-rule:nonzero;stroke:none"
           d="m 0,0 h -1.112 l -0.68,1.66 h 0.763 l 0.473,-1.189 0.47,1.189 H 0.68 Z m -0.745,-6.794 c -1.029,0 -1.866,0.274 -2.475,0.67 l 0.456,0.804 c 0.528,-0.322 1.199,-0.558 2.028,-0.558 1.037,0 1.708,0.331 1.708,0.99 0,1.113 -2.32,0.585 -3.435,1.397 -0.35,0.255 -0.564,0.633 -0.564,1.226 0,1.228 1.017,1.829 2.425,1.829 0.952,0 1.858,-0.272 2.443,-0.61 L 1.454,-1.84 c -0.511,0.255 -1.247,0.491 -1.993,0.491 -1.083,0 -1.442,-0.423 -1.442,-0.858 0,-1.537 4,-0.152 4,-2.634 0,-1.366 -1.331,-1.953 -2.764,-1.953" />
      </g>
      <g
         transform="matrix(1.25,0,0,-1.25,591.47098,672.19348)"
         id="g3720">
        <path
           inkscape:connector-curvature="0"
           id="path3722"
           style="fill:#606163;fill-opacity:1;fill-rule:nonzero;stroke:none"
           d="M 0,0 -2.52,2.606 -2.99,2.134 V 0 h -1 v 6.219 h 1 V 3.388 h 0.02 l 2.743,2.831 H 1.096 L -1.849,3.277 1.331,0 Z" />
      </g>
      <g
         transform="matrix(1.25,0,0,-1.25,598.24461,666.13998)"
         id="g3724">
        <path
           inkscape:connector-curvature="0"
           id="path3726"
           style="fill:#606163;fill-opacity:1;fill-rule:nonzero;stroke:none"
           d="m 0,0 h -0.021 l -1.037,-2.182 h 2.153 z m 2.435,-4.843 -0.887,1.767 h -3.03 l -0.84,-1.767 h -1.121 l 3.076,6.248 h 0.734 l 3.191,-6.248 z" />
      </g>
      <g
         transform="matrix(1.25,0,0,-1.25,382.39986,689.75335)"
         id="g3728">
        <path
           inkscape:connector-curvature="0"
           id="path3730"
           style="fill:#606163;fill-opacity:1;fill-rule:nonzero;stroke:none"
           d="m 0,0 c -1.026,0 -1.869,0.273 -2.472,0.668 l 0.453,0.803 c 0.528,-0.322 1.2,-0.556 2.028,-0.556 1.038,0 1.709,0.329 1.709,0.991 0,1.113 -2.322,0.585 -3.435,1.397 -0.35,0.255 -0.565,0.631 -0.565,1.225 0,1.226 1.017,1.831 2.423,1.831 0.955,0 1.86,-0.272 2.445,-0.614 L 2.199,4.953 C 1.688,5.208 0.952,5.444 0.206,5.444 c -1.083,0 -1.441,-0.425 -1.441,-0.86 0,-1.536 3.999,-0.15 3.999,-2.632 C 2.764,0.585 1.434,0 0,0" />
      </g>
      <g
         transform="matrix(1.25,0,0,-1.25,391.00098,682.98322)"
         id="g3732">
        <path
           inkscape:connector-curvature="0"
           id="path3734"
           style="fill:#606163;fill-opacity:1;fill-rule:nonzero;stroke:none"
           d="M 0,0 V -5.321 H -1.001 V 0 H -3.312 V 0.896 H 2.311 V 0 Z" />
      </g>
      <g
         transform="matrix(1.25,0,0,-1.25,398.73173,683.09073)"
         id="g3736">
        <path
           inkscape:connector-curvature="0"
           id="path3738"
           style="fill:#606163;fill-opacity:1;fill-rule:nonzero;stroke:none"
           d="m 0,0 c -0.268,0.077 -0.551,0.086 -0.946,0.086 h -0.878 v -2.019 h 0.754 c 0.407,0 0.728,0.018 0.983,0.093 0.483,0.141 0.792,0.444 0.792,0.954 C 0.705,-0.416 0.404,-0.113 0,0 m 1.648,-5.284 c -0.47,0 -0.84,0.171 -1.141,0.416 -0.861,0.699 -1.19,2.038 -1.82,2.038 h -0.511 v -2.405 h -1 v 6.216 h 1.86 c 0.471,0 0.898,-0.03 1.253,-0.122 0.812,-0.217 1.462,-0.745 1.462,-1.725 0,-1.067 -0.763,-1.606 -1.783,-1.775 v -0.018 c 0.407,-0.229 0.662,-1.06 1.161,-1.464 0.189,-0.15 0.398,-0.245 0.662,-0.245 0.112,0 0.293,0.018 0.434,0.057 l 0.206,-0.85 C 2.253,-5.235 1.94,-5.284 1.648,-5.284" />
      </g>
      <g
         transform="matrix(1.25,0,0,-1.25,406.75898,682.94785)"
         id="g3740">
        <path
           inkscape:connector-curvature="0"
           id="path3742"
           style="fill:#606163;fill-opacity:1;fill-rule:nonzero;stroke:none"
           d="m 0,0 c -1.528,0 -2.405,-0.963 -2.405,-2.274 0,-1.313 0.877,-2.255 2.405,-2.255 1.527,0 2.405,0.942 2.405,2.255 C 2.405,-0.963 1.527,0 0,0 m 0,-5.444 c -2.001,0 -3.452,1.216 -3.452,3.17 0,1.896 1.422,3.189 3.452,3.189 2.026,0 3.451,-1.293 3.451,-3.189 0,-1.954 -1.453,-3.17 -3.451,-3.17" />
      </g>
      <g
         transform="matrix(1.25,0,0,-1.25,417.90773,689.63485)"
         id="g3744">
        <path
           inkscape:connector-curvature="0"
           id="path3746"
           style="fill:#606163;fill-opacity:1;fill-rule:nonzero;stroke:none"
           d="M 0,0 -2.518,2.604 -2.99,2.133 V 0 H -3.991 V 6.217 H -2.99 V 3.388 h 0.02 l 2.743,2.829 H 1.098 L -1.847,3.272 1.333,0 Z" />
      </g>
      <g
         transform="matrix(1.25,0,0,-1.25,424.21135,682.94785)"
         id="g3748">
        <path
           inkscape:connector-curvature="0"
           id="path3750"
           style="fill:#606163;fill-opacity:1;fill-rule:nonzero;stroke:none"
           d="m 0,0 c -1.531,0 -2.408,-0.963 -2.408,-2.274 0,-1.313 0.877,-2.255 2.408,-2.255 1.528,0 2.402,0.942 2.402,2.255 C 2.402,-0.963 1.528,0 0,0 m 0,-5.444 c -2.001,0 -3.455,1.216 -3.455,3.17 0,1.896 1.423,3.189 3.455,3.189 2.027,0 3.452,-1.293 3.452,-3.189 0,-1.954 -1.454,-3.17 -3.452,-3.17" />
      </g>
      <g
         transform="matrix(1.25,0,0,-1.25,433.8086,689.67023)"
         id="g3752">
        <path
           inkscape:connector-curvature="0"
           id="path3754"
           style="fill:#606163;fill-opacity:1;fill-rule:nonzero;stroke:none"
           d="m 0,0 h -0.688 l -3.197,6.245 h 1.104 l 2.434,-4.841 h 0.018 l 2.321,4.841 h 1.096 z" />
      </g>
      <g
         transform="matrix(1.25,0,0,-1.25,445.9216,689.63485)"
         id="g3756">
        <path
           inkscape:connector-curvature="0"
           id="path3758"
           style="fill:#606163;fill-opacity:1;fill-rule:nonzero;stroke:none"
           d="M 0,0 -4.529,4.564 H -4.55 V 0 h -0.998 v 6.217 h 0.803 l 4.461,-4.5 h 0.017 v 4.5 H 0.734 V 0 Z" />
      </g>
      <g
         transform="matrix(1.25,0,0,-1.25,452.4621,683.5851)"
         id="g3760">
        <path
           inkscape:connector-curvature="0"
           id="path3762"
           style="fill:#606163;fill-opacity:1;fill-rule:nonzero;stroke:none"
           d="m 0,0 h -0.018 l -1.037,-2.18 h 2.15 z m 2.437,-4.84 -0.889,1.763 h -3.027 l -0.84,-1.763 h -1.124 l 3.076,6.244 H 0.37 L 3.558,-4.84 Z" />
      </g>
      <g
         transform="matrix(1.25,0,0,-1.25,464.55323,681.26335)"
         id="g3764">
        <path
           inkscape:connector-curvature="0"
           id="path3766"
           style="fill:#606163;fill-opacity:1;fill-rule:nonzero;stroke:none"
           d="m 0,0 h -1.112 l -0.68,1.663 h 0.766 l 0.47,-1.19 0.47,1.19 H 0.68 Z m -0.745,-6.792 c -1.029,0 -1.869,0.273 -2.475,0.668 l 0.456,0.803 c 0.528,-0.322 1.199,-0.556 2.028,-0.556 1.038,0 1.708,0.329 1.708,0.991 0,1.113 -2.323,0.585 -3.435,1.397 -0.35,0.255 -0.564,0.631 -0.564,1.225 0,1.226 1.017,1.831 2.425,1.831 0.952,0 1.858,-0.272 2.44,-0.614 L 1.454,-1.839 c -0.511,0.255 -1.247,0.491 -1.993,0.491 -1.083,0 -1.441,-0.425 -1.441,-0.86 0,-1.536 3.999,-0.15 3.999,-2.632 0,-1.367 -1.331,-1.952 -2.764,-1.952" />
      </g>
      <g
         transform="matrix(1.25,0,0,-1.25,472.75273,682.94785)"
         id="g3768">
        <path
           inkscape:connector-curvature="0"
           id="path3770"
           style="fill:#606163;fill-opacity:1;fill-rule:nonzero;stroke:none"
           d="m 0,0 c -1.527,0 -2.405,-0.963 -2.405,-2.274 0,-1.313 0.878,-2.255 2.405,-2.255 1.528,0 2.408,0.942 2.408,2.255 C 2.408,-0.963 1.528,0 0,0 m 0,-5.444 c -2.001,0 -3.451,1.216 -3.451,3.17 0,1.896 1.425,3.189 3.451,3.189 2.03,0 3.455,-1.293 3.455,-3.189 0,-1.954 -1.453,-3.17 -3.455,-3.17" />
      </g>
      <g
         transform="matrix(1.25,0,0,-1.25,478.9136,689.63485)"
         id="g3772">
        <path
           inkscape:connector-curvature="0"
           id="path3774"
           style="fill:#606163;fill-opacity:1;fill-rule:nonzero;stroke:none"
           d="M 0,0 V 6.217 H 1.001 V 0.895 H 4.378 V 0 Z" />
      </g>
      <g
         transform="matrix(1.25,0,0,-1.25,489.49223,683.5851)"
         id="g3776">
        <path
           inkscape:connector-curvature="0"
           id="path3778"
           style="fill:#606163;fill-opacity:1;fill-rule:nonzero;stroke:none"
           d="m 0,0 h -0.02 l -1.038,-2.18 h 2.151 z m 2.435,-4.84 -0.886,1.763 h -3.03 L -2.322,-4.84 h -1.12 l 3.076,6.244 H 0.367 L 3.559,-4.84 Z" />
      </g>
      <path
         inkscape:connector-curvature="0"
         id="path3780"
         style="fill:#606163;fill-opacity:1;fill-rule:nonzero;stroke:none"
         d="m 498.08948,681.86385 h 1.25125 v 7.77125 h -1.25125 z" />
      <g
         transform="matrix(1.25,0,0,-1.25,508.53635,689.63485)"
         id="g3782">
        <path
           inkscape:connector-curvature="0"
           id="path3784"
           style="fill:#606163;fill-opacity:1;fill-rule:nonzero;stroke:none"
           d="M 0,0 -4.526,4.564 H -4.547 V 0 h -1 v 6.217 h 0.803 l 4.464,-4.5 h 0.016 v 4.5 H 0.737 V 0 Z" />
      </g>
      <g
         transform="matrix(1.25,0,0,-1.25,518.8366,689.75335)"
         id="g3786">
        <path
           inkscape:connector-curvature="0"
           id="path3788"
           style="fill:#606163;fill-opacity:1;fill-rule:nonzero;stroke:none"
           d="m 0,0 c -2.377,0 -3.698,1.235 -3.698,3.122 0,1.878 1.413,3.237 3.661,3.237 0.894,0 1.783,-0.18 2.648,-0.539 L 2.311,4.972 C 1.574,5.284 0.782,5.444 0.046,5.444 c -1.706,0 -2.695,-0.98 -2.695,-2.264 0,-1.368 0.94,-2.265 2.695,-2.265 0.558,0 1.161,0.086 1.662,0.246 V 2.614 H -0.396 V 3.509 H 2.706 V 0.557 C 2.066,0.255 1.009,0 0,0" />
      </g>
      <path
         inkscape:connector-curvature="0"
         id="path3790"
         style="fill:#606163;fill-opacity:1;fill-rule:nonzero;stroke:none"
         d="m 524.40573,681.86385 h 1.25125 v 7.77125 h -1.25125 z" />
      <g
         transform="matrix(1.25,0,0,-1.25,535.65798,689.63485)"
         id="g3792">
        <path
           inkscape:connector-curvature="0"
           id="path3794"
           style="fill:#606163;fill-opacity:1;fill-rule:nonzero;stroke:none"
           d="M 0,0 V 4.461 H -0.02 L -2.528,1.443 H -2.66 L -5.172,4.461 H -5.188 V 0 h -1.001 v 6.217 h 0.831 l 2.763,-3.33 h 0.018 l 2.766,3.33 H 1.001 V 0 Z" />
      </g>
      <g
         transform="matrix(1.25,0,0,-1.25,546.13773,689.63485)"
         id="g3796">
        <path
           inkscape:connector-curvature="0"
           id="path3798"
           style="fill:#606163;fill-opacity:1;fill-rule:nonzero;stroke:none"
           d="M 0,0 -4.53,4.564 H -4.548 V 0 h -1.003 v 6.217 h 0.803 l 4.464,-4.5 h 0.019 v 4.5 H 0.736 V 0 Z" />
      </g>
      <g
         transform="matrix(1.25,0,0,-1.25,552.6806,683.5851)"
         id="g3800">
        <path
           inkscape:connector-curvature="0"
           id="path3802"
           style="fill:#606163;fill-opacity:1;fill-rule:nonzero;stroke:none"
           d="m 0,0 h -0.02 l -1.038,-2.18 h 2.151 z m 2.435,-4.84 -0.886,1.763 h -3.03 L -2.322,-4.84 h -1.123 l 3.076,6.244 H 0.367 L 3.556,-4.84 Z" />
      </g>
      <g
         transform="matrix(1.25,0,0,-1.25,558.63398,689.63485)"
         id="g3804">
        <path
           inkscape:connector-curvature="0"
           id="path3806"
           style="fill:#606163;fill-opacity:1;fill-rule:nonzero;stroke:none"
           d="M 0,0 -0.379,0.49 3.414,5.321 H -0.33 V 6.217 H 4.556 L 4.922,5.726 1.141,0.895 H 5.123 V 0 Z" />
      </g>
      <path
         inkscape:connector-curvature="0"
         id="path3808"
         style="fill:#606163;fill-opacity:1;fill-rule:nonzero;stroke:none"
         d="m 566.58948,681.86385 h 1.25125 v 7.77125 h -1.25125 z" />
      <g
         transform="matrix(1.25,0,0,-1.25,571.30611,689.75335)"
         id="g3810">
        <path
           inkscape:connector-curvature="0"
           id="path3812"
           style="fill:#606163;fill-opacity:1;fill-rule:nonzero;stroke:none"
           d="m 0,0 c -0.651,0 -1.198,0.189 -1.66,0.538 l 0.47,0.764 c 0.349,-0.255 0.691,-0.387 1.181,-0.387 0.565,0 1.018,0.234 1.018,0.856 V 6.312 H 2.01 V 1.734 C 2.01,0.527 1.169,0 0,0" />
      </g>
      <g
         transform="matrix(1.25,0,0,-1.25,579.0686,683.5851)"
         id="g3814">
        <path
           inkscape:connector-curvature="0"
           id="path3816"
           style="fill:#606163;fill-opacity:1;fill-rule:nonzero;stroke:none"
           d="m 0,0 h -0.018 l -1.038,-2.18 h 2.151 z m 2.434,-4.84 -0.886,1.763 h -3.027 l -0.84,-1.763 h -1.124 l 3.076,6.244 H 0.366 L 3.558,-4.84 Z" />
      </g>
      <g
         transform="matrix(1.25,0,0,-1.25,379.84135,707.08122)"
         id="g3818">
        <path
           inkscape:connector-curvature="0"
           id="path3820"
           style="fill:#606163;fill-opacity:1;fill-rule:nonzero;stroke:none"
           d="M 0,0 V 6.218 H 1.001 V 0.896 H 4.378 V 0 Z" />
      </g>
      <g
         transform="matrix(1.25,0,0,-1.25,388.28123,707.19835)"
         id="g3822">
        <path
           inkscape:connector-curvature="0"
           id="path3824"
           style="fill:#606163;fill-opacity:1;fill-rule:nonzero;stroke:none"
           d="m 0,0 c -0.651,0 -1.195,0.188 -1.657,0.536 l 0.469,0.765 c 0.351,-0.253 0.689,-0.387 1.179,-0.387 0.568,0 1.021,0.238 1.021,0.86 V 6.312 H 2.01 V 1.737 C 2.01,0.527 1.173,0 0,0" />
      </g>
      <g
         transform="matrix(1.25,0,0,-1.25,400.26123,705.3466)"
         id="g3826">
        <path
           inkscape:connector-curvature="0"
           id="path3828"
           style="fill:#606163;fill-opacity:1;fill-rule:nonzero;stroke:none"
           d="m 0,0 c -0.396,-0.954 -1.339,-1.481 -2.821,-1.481 -1.548,0 -2.511,0.584 -2.867,1.585 C -5.812,0.443 -5.86,0.8 -5.86,1.188 V 4.83 h 1.001 V 1.311 c 0,-0.338 0.037,-0.643 0.14,-0.907 0.246,-0.613 0.815,-0.971 1.898,-0.971 1.047,0 1.614,0.331 1.867,0.906 0.123,0.273 0.172,0.604 0.172,0.972 V 4.83 h 1 V 1.188 C 0.218,0.746 0.144,0.339 0,0" />
      </g>
      <g
         transform="matrix(1.25,0,0,-1.25,407.06661,703.82672)"
         id="g3830">
        <path
           inkscape:connector-curvature="0"
           id="path3832"
           style="fill:#606163;fill-opacity:1;fill-rule:nonzero;stroke:none"
           d="m 0,0 c -0.235,0.076 -0.527,0.106 -0.849,0.106 h -1.593 v -1.813 h 1.358 c 0.404,0 0.774,0.039 1.047,0.142 0.37,0.14 0.597,0.395 0.597,0.82 C 0.56,-0.329 0.342,-0.111 0,0 M -0.499,2.644 C -0.717,2.701 -0.96,2.718 -1.253,2.718 H -2.442 V 1.001 h 1.198 c 0.321,0 0.605,0.028 0.82,0.114 0.329,0.131 0.528,0.386 0.528,0.763 0,0.433 -0.227,0.662 -0.603,0.766 m 0.915,-5.04 c -0.462,-0.169 -0.972,-0.208 -1.425,-0.208 h -2.434 v 6.218 h 2.19 c 0.388,0 0.746,-0.039 1.084,-0.122 C 0.597,3.293 1.152,2.842 1.152,1.944 1.152,1.436 0.935,0.982 0.436,0.698 V 0.68 C 0.597,0.652 0.737,0.595 0.86,0.53 1.342,0.284 1.605,-0.197 1.605,-0.736 c 0,-0.952 -0.539,-1.425 -1.189,-1.66" />
      </g>
      <g
         transform="matrix(1.25,0,0,-1.25,410.91186,707.08122)"
         id="g3834">
        <path
           inkscape:connector-curvature="0"
           id="path3836"
           style="fill:#606163;fill-opacity:1;fill-rule:nonzero;stroke:none"
           d="M 0,0 V 6.218 H 1.001 V 0.896 H 4.378 V 0 Z" />
      </g>
      <g
         transform="matrix(1.25,0,0,-1.25,419.35548,707.19835)"
         id="g3838">
        <path
           inkscape:connector-curvature="0"
           id="path3840"
           style="fill:#606163;fill-opacity:1;fill-rule:nonzero;stroke:none"
           d="m 0,0 c -0.65,0 -1.198,0.188 -1.66,0.536 l 0.471,0.765 c 0.349,-0.253 0.687,-0.387 1.18,-0.387 0.566,0 1.018,0.238 1.018,0.86 V 6.312 H 2.007 V 1.737 C 2.007,0.527 1.17,0 0,0" />
      </g>
      <g
         transform="matrix(1.25,0,0,-1.25,427.11785,701.03135)"
         id="g3842">
        <path
           inkscape:connector-curvature="0"
           id="path3844"
           style="fill:#606163;fill-opacity:1;fill-rule:nonzero;stroke:none"
           d="M 0,0 H -0.021 L -1.058,-2.179 H 1.095 Z M 2.434,-4.84 1.548,-3.076 H -1.479 L -2.322,-4.84 H -3.443 L -0.37,1.406 H 0.37 L 3.558,-4.84 Z" />
      </g>
      <g
         transform="matrix(1.25,0,0,-1.25,439.81811,707.08122)"
         id="g3846">
        <path
           inkscape:connector-curvature="0"
           id="path3848"
           style="fill:#606163;fill-opacity:1;fill-rule:nonzero;stroke:none"
           d="M 0,0 -4.529,4.566 H -4.55 V 0 h -1 v 6.218 h 0.803 l 4.464,-4.5 h 0.016 v 4.5 H 0.734 V 0 Z" />
      </g>
      <g
         transform="matrix(1.25,0,0,-1.25,446.3586,701.03135)"
         id="g3850">
        <path
           inkscape:connector-curvature="0"
           id="path3852"
           style="fill:#606163;fill-opacity:1;fill-rule:nonzero;stroke:none"
           d="M 0,0 H -0.017 L -1.055,-2.179 H 1.096 Z M 2.435,-4.84 1.549,-3.076 H -1.479 L -2.322,-4.84 h -1.121 l 3.076,6.246 H 0.367 L 3.559,-4.84 Z" />
      </g>
      <g
         transform="matrix(1.25,0,0,-1.25,146.27923,663.2116)"
         id="g3854">
        <path
           inkscape:connector-curvature="0"
           id="path3856"
           style="fill:#d33742;fill-opacity:1;fill-rule:nonzero;stroke:none"
           d="m 0,0 c -13.493,0 -14.833,-16.744 -25.116,-16.744 -3.982,0 -6.585,2.805 -6.585,6.463 0,3.615 2.603,6.422 6.502,6.422 2.521,0 4.675,-1.222 6.546,-2.929 l 2.559,2.929 c -10e-4,10e-4 -0.002,0.002 -0.003,0.002 l 8.498,9.711 h -5.153 l 5.569,9.386 h -6.84 l -2.942,-11.492 3.958,0.088 -3.714,-7.117 c -2.45,2.199 -5.423,3.281 -8.68,3.281 -6.34,0 -10.728,-4.594 -10.728,-10.281 0,-5.733 4.388,-10.324 11.013,-10.324 13.534,0 15.116,16.746 24.956,16.746 4.141,0 6.745,-2.807 6.745,-6.462 0,-3.618 -2.604,-6.423 -6.503,-6.423 -2.521,0 -4.673,1.219 -6.544,2.928 l -2.559,-2.928 c 2.559,-2.6 5.77,-3.861 9.305,-3.861 6.341,0 10.73,4.591 10.73,10.284 C 11.014,-4.594 6.625,0 0,0" />
      </g>
      <g
         transform="matrix(1.25,0,0,-1.25,187.18873,688.29085)"
         id="g3858">
        <path
           inkscape:connector-curvature="0"
           id="path3860"
           style="fill:#606163;fill-opacity:1;fill-rule:nonzero;stroke:none"
           d="m 0,0 h -2.158 l -10.025,19.575 h 3.459 L -1.093,4.403 h 0.058 L 6.239,19.575 H 9.67 Z" />
      </g>
      <g
         transform="matrix(1.25,0,0,-1.25,203.74873,688.18222)"
         id="g3862">
        <path
           inkscape:connector-curvature="0"
           id="path3864"
           style="fill:#606163;fill-opacity:1;fill-rule:nonzero;stroke:none"
           d="M 0,0 V 19.488 H 13.897 V 16.679 H 3.134 v -5.381 h 8.362 V 8.488 H 3.134 V 2.81 h 10.94 V 0 Z" />
      </g>
      <g
         transform="matrix(1.25,0,0,-1.25,240.2026,688.55085)"
         id="g3866">
        <path
           inkscape:connector-curvature="0"
           id="path3868"
           style="fill:#606163;fill-opacity:1;fill-rule:nonzero;stroke:none"
           d="m 0,0 c -7.451,0 -11.59,3.873 -11.59,9.789 0,5.883 4.435,10.143 11.471,10.143 2.809,0 5.589,-0.564 8.309,-1.688 l -0.946,-2.66 c -2.306,0.975 -4.79,1.479 -7.097,1.479 -5.352,0 -8.456,-3.077 -8.456,-7.097 0,-4.288 2.956,-7.098 8.456,-7.098 1.745,0 3.64,0.267 5.204,0.772 v 4.549 h -6.594 v 2.812 H 8.486 V 1.744 C 6.477,0.799 3.163,0 0,0" />
      </g>
      <g
         transform="matrix(1.25,0,0,-1.25,269.94135,667.22272)"
         id="g3870">
        <path
           inkscape:connector-curvature="0"
           id="path3872"
           style="fill:#606163;fill-opacity:1;fill-rule:nonzero;stroke:none"
           d="m 0,0 c -4.792,0 -7.54,-3.018 -7.54,-7.127 0,-4.111 2.748,-7.067 7.54,-7.067 4.79,0 7.541,2.956 7.541,7.067 C 7.541,-3.018 4.79,0 0,0 m 0,-17.063 c -6.27,0 -10.822,3.815 -10.822,9.936 0,5.943 4.465,9.996 10.822,9.996 6.356,0 10.823,-4.053 10.823,-9.996 0,-6.121 -4.553,-9.936 -10.823,-9.936" />
      </g>
      <g
         transform="matrix(1.25,0,0,-1.25,300.33685,688.29085)"
         id="g3874">
        <path
           inkscape:connector-curvature="0"
           id="path3876"
           style="fill:#606163;fill-opacity:1;fill-rule:nonzero;stroke:none"
           d="M 0,0 H -2.157 L -12.18,19.575 h 3.457 L -1.094,4.403 h 0.06 L 6.24,19.575 h 3.428 z" />
      </g>
      <g
         transform="matrix(1.25,0,0,-1.25,324.36523,669.2186)"
         id="g3878">
        <path
           inkscape:connector-curvature="0"
           id="path3880"
           style="fill:#606163;fill-opacity:1;fill-rule:nonzero;stroke:none"
           d="m 0,0 h -0.061 l -3.25,-6.832 h 6.74 z m 7.629,-15.171 -2.778,5.529 h -9.492 l -2.631,-5.529 h -3.52 l 9.641,19.574 h 2.303 l 9.994,-19.574 z" />
      </g>
    </g>
  </g>
</svg>
